# xmcd
#
# Track frame offsets: 
#        150
#        29600
#        45625
#        57822
#        70702
#        97122
#        112612
#        130610
#        144922
#
# Disc length: 2161 seconds
#
# Revision: 2
# Processed by: cddbd v1.5.2PL0 Copyright (c) Steve Scherf et al.
# Submitted via: ExactAudioCopyFreeDBPlugin 1.0
#
DISCID=70086f09
DTITLE=Bobby Womack - Bobby Womack:  The Collection [BCM Records] [box
DTITLE=set]
DYEAR=1990
DGENRE=Soul
TTITLE0=I Can Understand It
TTITLE1=Woman's Gotta Have It
TTITLE2=And I Love Her
TTITLE3=Got to Get You Back
TTITLE4=Simple Man
TTITLE5=Ruby Dean
TTITLE6=Thing Called Love
TTITLE7=Sweet Caroline
TTITLE8=Harry Hippie
EXTD=
EXTT0=
EXTT1=
EXTT2=
EXTT3=
EXTT4=
EXTT5=
EXTT6=
EXTT7=
EXTT8=
PLAYORDER=
